<?xml version="1.0" encoding="UTF-8" standalone="no"?>
<svg
   height="128"
   width="128"
   version="1.1"
   id="svg26"
   sodipodi:docname="icon.svg"
   inkscape:version="1.1.2 (0a00cf5339, 2022-02-04)"
   xmlns:inkscape="http://www.inkscape.org/namespaces/inkscape"
   xmlns:sodipodi="http://sodipodi.sourceforge.net/DTD/sodipodi-0.dtd"
   xmlns="http://www.w3.org/2000/svg"
   xmlns:svg="http://www.w3.org/2000/svg">
  <defs
     id="defs30" />
  <sodipodi:namedview
     id="namedview28"
     pagecolor="#ffffff"
     bordercolor="#666666"
     borderopacity="1.0"
     inkscape:pageshadow="2"
     inkscape:pageopacity="0.0"
     inkscape:pagecheckerboard="0"
     showgrid="false"
     inkscape:zoom="6.5234375"
     inkscape:cx="64"
     inkscape:cy="64.076647"
     inkscape:window-width="1920"
     inkscape:window-height="1021"
     inkscape:window-x="0"
     inkscape:window-y="30"
     inkscape:window-maximized="1"
     inkscape:current-layer="g24" />
  <g
     transform="translate(32 32)"
     id="g6">
    <path
       d="m-16-32c-8.86 0-16 7.13-16 15.99v95.98c0 8.86 7.13 15.99 16 15.99h96c8.86 0 16-7.13 16-15.99v-95.98c0-8.85-7.14-15.99-16-15.99z"
       fill="#363d52"
       id="path2" />
    <path
       d="m-16-32c-8.86 0-16 7.13-16 15.99v95.98c0 8.86 7.13 15.99 16 15.99h96c8.86 0 16-7.13 16-15.99v-95.98c0-8.85-7.14-15.99-16-15.99zm0 4h96c6.64 0 12 5.35 12 11.99v95.98c0 6.64-5.35 11.99-12 11.99h-96c-6.64 0-12-5.35-12-11.99v-95.98c0-6.64 5.36-11.99 12-11.99z"
       fill-opacity=".4"
       id="path4" />
  </g>
  <g
     stroke-width="9.92746"
     transform="matrix(0.10073078,0,0,0.10073078,11.369392,0.61363016)"
     id="g24">
    <path
       d="m 0,0 c 0,0 -0.325,1.994 -0.515,1.976 l -36.182,-3.491 c -2.879,-0.278 -5.115,-2.574 -5.317,-5.459 l -0.994,-14.247 -27.992,-1.997 -1.904,12.912 c -0.424,2.872 -2.932,5.037 -5.835,5.037 h -38.188 c -2.902,0 -5.41,-2.165 -5.834,-5.037 l -1.905,-12.912 -27.992,1.997 -0.994,14.247 c -0.202,2.886 -2.438,5.182 -5.317,5.46 l -36.2,3.49 c -0.187,0.018 -0.324,-1.978 -0.511,-1.978 l -0.049,-7.83 30.658,-4.944 1.004,-14.374 c 0.203,-2.91 2.551,-5.263 5.463,-5.472 l 38.551,-2.75 c 0.146,-0.01 0.29,-0.016 0.434,-0.016 2.897,0 5.401,2.166 5.825,5.038 l 1.959,13.286 h 28.005 l 1.959,-13.286 c 0.423,-2.871 2.93,-5.037 5.831,-5.037 0.142,0 0.284,0.005 0.423,0.015 l 38.556,2.75 c 2.911,0.209 5.26,2.562 5.463,5.472 l 1.003,14.374 30.645,4.966 z"
       fill="#ffffff"
       transform="matrix(4.162611,0,0,-4.162611,919.24059,771.67186)"
       id="path8" />
    <path
       d="m 115.51007,397.66496 v 197.7823 25.12136 22.86106 c 0.44956,0.004 0.89913,0.0208 1.34452,0.0624 l 150.66987,14.52751 c 7.89231,0.76176 14.07795,7.1139 14.62742,15.02286 l 4.64547,66.5102 131.43028,9.37837 9.05368,-61.38603 c 1.17386,-7.95891 8.00054,-13.85733 16.05103,-13.85733 h 158.96179 c 8.04632,0 14.87301,5.89842 16.04686,13.85733 l 9.05368,61.38603 131.43444,-9.37837 4.64131,-66.5102 c 0.55363,-7.90896 6.73511,-14.25694 14.62742,-15.02286 l 150.61159,-14.52751 c 0.4454,-0.0416 0.8908,-0.0583 1.34036,-0.0624 v -19.61006 l 0.0624,-0.0208 V 397.66496 c 21.2165,-26.70927 41.30655,-56.17113 56.69893,-80.95862 -23.52292,-40.04432 -52.34484,-75.83028 -83.15232,-108.98548 -28.57216,14.38182 -56.32429,30.67428 -82.53625,48.01156 -13.11639,-13.0373 -27.8895,-23.70191 -42.40036,-34.84938 -14.25694,-11.45135 -30.32462,-19.84733 -45.56394,-29.62947 4.53725,-33.78791 6.78089,-67.05134 7.68418,-101.767511 -39.32002,-19.789053 -81.25,-32.909603 -123.66285,-42.333754 -16.9335,28.459771 -32.41841,59.279745 -45.90527,89.408725 -15.99275,-2.6724 -32.06043,-3.6631 -48.14892,-3.85458 v -0.025 c -0.11239,0 -0.21646,0.025 -0.3122,0.025 -0.0999,0 -0.20397,-0.025 -0.30387,-0.025 v 0.025 c -16.11763,0.19148 -32.17282,1.18218 -48.16973,3.85458 -13.47854,-30.12898 -28.95512,-60.948954 -45.9136,-89.408725 -42.39203,9.424151 -84.32618,22.544701 -123.64204,42.333754 0.89913,34.716171 3.14277,67.979601 7.69251,101.767511 -15.26846,9.78214 -31.31532,18.17812 -45.57643,29.62947 -14.49005,11.14747 -29.28813,21.81208 -42.40868,34.84938 -26.21196,-17.33728 -53.95576,-33.62974 -82.53625,-48.01156 -30.80748,33.1552 -59.612753,68.94116 -83.143993,108.98548 18.493057,29.02877 38.329198,58.20532 56.698923,80.95862 z"
       fill="#478cbf"
       id="path10"
       style="stroke-width:41.3242" />
    <path
       d="m 0,0 -1.121,-16.063 c -0.135,-1.936 -1.675,-3.477 -3.611,-3.616 l -38.555,-2.751 c -0.094,-0.007 -0.188,-0.01 -0.281,-0.01 -1.916,0 -3.569,1.406 -3.852,3.33 l -2.211,14.994 H -81.09 l -2.211,-14.994 c -0.297,-2.018 -2.101,-3.469 -4.133,-3.32 l -38.555,2.751 c -1.936,0.139 -3.476,1.68 -3.611,3.616 L -130.721,0 -163.268,3.138 c 0.015,-3.498 0.06,-7.33 0.06,-8.093 0,-34.374 43.605,-50.896 97.781,-51.086 h 0.066 0.067 c 54.176,0.19 97.766,16.712 97.766,51.086 0,0.777 0.047,4.593 0.063,8.093 z"
       fill="#478cbf"
       transform="matrix(4.162611,0,0,-4.162611,784.07144,817.24284)"
       id="path12" />
    <path
       d="m 449.23478,564.75152 c 0,50.16779 -40.6479,90.80736 -90.79903,90.80736 -50.12617,0 -90.78655,-40.63957 -90.78655,-90.80736 0,-50.13449 40.66038,-90.75325 90.78655,-90.75325 50.15113,0 90.79903,40.61876 90.79903,90.75325"
       fill="#ffffff"
       id="path14"
       style="stroke-width:41.3242" />
    <path
       d="m 412.15845,561.9918 c 0,33.27591 -26.96956,60.24547 -60.27045,60.24547 -33.28424,0 -60.27044,-26.96956 -60.27044,-60.24547 0,-33.27591 26.9862,-60.27045 60.27044,-60.27045 33.30089,0 60.27045,26.99454 60.27045,60.27045"
       fill="#414042"
       id="path16"
       style="stroke-width:41.3242" />
    <path
       d="m 0,0 c -3.878,0 -7.021,2.858 -7.021,6.381 v 20.081 c 0,3.52 3.143,6.381 7.021,6.381 3.878,0 7.028,-2.861 7.028,-6.381 V 6.381 C 7.028,2.858 3.878,0 0,0"
       fill="#ffffff"
       id="path18"
       transform="matrix(4.162611,0,0,-4.162611,511.99336,724.73954)" />
    <path
       d="m 597.73987,325.69869 c 0,50.16779 40.64789,90.80736 90.80736,90.80736 50.12199,0 90.77822,-40.63957 90.77822,-90.80736 0,-50.13448 -40.65623,-90.75324 -90.77822,-90.75324 -50.15947,0 -90.80736,40.61876 -90.80736,90.75324"
       fill="#ffffff"
       id="path20"
       style="stroke-width:41.3242" />
    <path
       d="m 630.42551,330.38754 c 0,33.27591 26.96123,60.24546 60.23714,60.24546 33.30922,0 60.27045,-26.96955 60.27045,-60.24546 0,-33.27592 -26.96123,-60.27045 -60.27045,-60.27045 -33.27591,0 -60.23714,26.99453 -60.23714,60.27045"
       fill="#414042"
       id="path22"
       style="stroke-width:41.3242" />
  </g>
</svg>
